<?xml version="1.0" standalone="no"?>
<!DOCTYPE svg PUBLIC "-//W3C//DTD SVG 20010904//EN"
 "http://www.w3.org/TR/2001/REC-SVG-20010904/DTD/svg10.dtd">
<svg version="1.0" xmlns="http://www.w3.org/2000/svg"
 width="500.000000pt" height="500.000000pt" viewBox="0 0 500.000000 500.000000"
 preserveAspectRatio="xMidYMid meet">
<metadata>
Created by potrace 1.11, written by Peter Selinger 2001-2013
</metadata>
<g transform="translate(0.000000,500.000000) scale(0.100000,-0.100000)"
fill="#000000" stroke="none">
<path d="M0 2500 l0 -2500 340 0 340 0 -30 31 c-28 30 -41 57 -21 44 5 -3 12
-1 16 5 3 5 2 10 -3 10 -15 0 -22 42 -13 75 4 17 12 28 17 25 5 -3 10 18 10
46 2 60 15 89 44 97 11 3 18 1 14 -4 -3 -5 1 -9 9 -9 8 0 20 -7 28 -16 7 -8
21 -13 30 -11 10 3 20 0 22 -6 2 -6 2 14 1 44 -3 44 1 57 16 69 11 8 28 40 39
70 11 31 20 46 20 33 2 -48 31 -30 31 19 0 16 3 18 14 9 10 -9 16 -9 21 -1 5
8 11 6 20 -6 7 -10 19 -15 29 -11 9 4 29 1 44 -5 15 -6 32 -12 37 -12 6 -1 21
-11 34 -23 13 -12 27 -20 32 -18 4 3 5 -4 2 -15 -4 -16 4 -24 39 -39 25 -10
48 -26 51 -35 4 -10 18 -16 35 -16 16 0 40 -8 53 -19 13 -10 44 -29 68 -42 24
-13 51 -28 60 -34 9 -5 57 -34 106 -64 50 -30 91 -58 93 -63 2 -4 10 -8 17 -8
14 0 140 -68 187 -101 15 -11 43 -19 68 -19 37 0 41 2 30 15 -14 16 -45 21
-35 5 3 -6 -1 -7 -9 -4 -29 11 -16 24 24 24 23 0 58 -9 80 -20 36 -18 109 -29
84 -12 -6 4 -13 15 -17 25 -10 26 23 22 55 -8 l27 -25 599 0 600 0 7 23 c4 12
7 26 6 30 -1 4 6 10 14 13 9 4 15 19 15 35 0 20 5 29 16 29 9 0 32 16 51 35
28 28 34 40 29 60 -4 14 -2 25 4 25 5 0 10 -4 10 -8 0 -19 59 -74 71 -66 8 4
10 3 5 -5 -9 -14 12 -36 42 -45 12 -4 22 -12 22 -17 0 -5 7 -9 16 -9 8 0 12 4
9 10 -3 5 -2 10 4 10 5 0 12 -4 16 -10 9 -14 35 0 28 15 -3 10 -14 12 -33 9
-15 -4 -30 -2 -34 4 -3 5 2 9 11 8 9 0 18 5 20 12 3 7 1 12 -4 11 -4 -1 -17 2
-28 7 -23 10 -30 44 -9 44 8 0 14 5 14 11 0 6 -6 9 -12 6 -52 -19 -59 -19 -65
2 -7 27 -19 27 -27 -1 -4 -18 -8 -20 -17 -11 -10 10 -9 17 6 33 11 12 13 20 6
20 -7 0 -9 4 -6 10 4 6 -5 8 -22 6 -15 -2 -21 -1 -11 1 24 6 30 31 9 45 -9 7
-21 19 -26 27 -5 8 20 -7 56 -33 99 -73 122 -86 152 -86 15 0 54 -11 86 -25
l58 -24 73 20 c39 11 74 18 77 15 3 -2 -15 -10 -38 -16 -85 -22 -83 -20 -47
-39 18 -10 49 -26 68 -38 225 -129 257 -143 324 -143 68 0 92 14 63 35 -22 16
-22 36 -1 28 13 -5 15 -1 9 18 -4 13 -15 35 -24 49 -10 14 -22 37 -26 50 -4
14 -18 41 -31 61 -23 34 -28 36 -67 32 -23 -3 -73 -11 -112 -19 -80 -16 -128
-18 -80 -3 17 5 75 19 129 30 91 19 107 20 175 8 62 -10 82 -18 109 -45 18
-17 56 -42 85 -55 111 -51 261 -131 300 -159 35 -26 50 -30 104 -30 82 0 82
13 1 97 -75 77 -95 107 -47 71 33 -25 92 -58 104 -58 3 0 5 39 5 87 l0 87 -30
-29 c-17 -16 -33 -39 -36 -51 -6 -24 -34 -42 -34 -22 0 6 -3 8 -7 5 -3 -4 -12
-2 -20 5 -7 6 -16 8 -19 5 -4 -3 -13 0 -21 6 -39 30 -257 255 -342 353 -19 21
-76 84 -126 139 -50 55 -117 132 -150 170 -33 39 -90 102 -126 140 -37 39 -78
84 -92 100 l-25 31 28 119 c19 78 35 124 46 130 34 21 64 47 64 56 0 6 -4 7
-10 4 -6 -3 -10 1 -10 9 0 20 17 29 24 14 4 -7 4 24 1 70 -3 60 -1 90 9 105 7
12 18 80 24 152 10 110 23 179 48 253 3 11 12 9 41 -8 20 -12 48 -23 62 -26
14 -2 89 -17 166 -33 117 -24 172 -29 338 -34 l197 -5 0 569 0 569 -122 -5
c-214 -9 -263 -14 -308 -30 -25 -9 -69 -21 -99 -26 -46 -9 -59 -8 -87 7 -32
18 -35 18 -63 1 l-30 -17 5 37 c8 57 13 66 30 59 21 -8 11 23 -28 86 -20 33
-28 57 -26 80 l3 33 73 -3 c60 -3 72 -1 72 12 0 30 337 16 427 -18 24 -9 67
-19 98 -22 l55 -7 0 718 c0 573 -3 715 -12 708 -16 -13 -142 -21 -497 -33
-183 -6 -307 -15 -350 -24 -36 -8 -87 -18 -114 -21 -26 -4 -45 -10 -42 -16 12
-19 -6 -8 -39 24 -30 29 -34 40 -33 78 2 60 -22 142 -39 135 -10 -4 -14 5 -14
33 0 21 -3 59 -6 85 l-7 46 -921 -1 c-635 0 -924 -3 -933 -11 -10 -8 -13 -7
-13 3 0 11 -3 11 -11 -1 -8 -11 -12 -12 -16 -3 -3 10 -217 13 -979 13 l-974 0
0 -2500z m1880 2470 c13 -8 13 -10 -2 -10 -9 0 -20 5 -23 10 -8 13 5 13 25 0z
m1257 4 c-3 -3 -12 -4 -19 -1 -8 3 -5 6 6 6 11 1 17 -2 13 -5z m-1311 -19 c10
-8 14 -15 7 -15 -6 0 -14 4 -18 9 -3 5 -22 7 -42 4 -26 -4 -34 -3 -29 5 10 17
58 15 82 -3z m954 -5 c8 -5 11 -10 5 -10 -5 0 -17 5 -25 10 -8 5 -10 10 -5 10
6 0 17 -5 25 -10z m-1056 -55 c-4 -8 -10 -15 -15 -15 -4 0 -6 7 -3 15 4 8 10
15 15 15 4 0 6 -7 3 -15z m1816 -49 c0 -2 -7 -7 -16 -10 -8 -3 -12 -2 -9 4 6
10 25 14 25 6z m202 -32 c-12 -8 -22 -19 -22 -24 0 -10 32 -1 40 11 3 4 16 -8
29 -27 29 -41 24 -52 -12 -24 -14 11 -29 20 -34 20 -4 0 -1 -4 7 -10 19 -11
11 -18 -28 -26 -25 -5 -32 -3 -32 10 0 9 -8 16 -17 16 -14 0 -15 -2 -4 -9 9
-6 -3 -11 -35 -16 -32 -4 -50 -3 -52 4 -2 6 -8 11 -14 11 -6 0 -8 -7 -5 -14 4
-10 1 -13 -9 -9 -12 4 -12 8 -2 20 12 15 3 27 -42 53 -8 5 -11 12 -7 16 5 5
11 4 15 -2 4 -6 19 -14 35 -18 15 -3 27 -13 27 -21 0 -31 20 -14 21 18 l0 32
16 -32 c20 -41 27 -41 43 -4 6 16 17 28 24 25 7 -3 25 2 41 10 35 19 47 11 17
-10z m-492 6 c0 -5 -4 -10 -10 -10 -5 0 -10 5 -10 10 0 6 5 10 10 10 6 0 10
-4 10 -10z m-1593 -16 c-3 -3 -12 -4 -19 -1 -8 3 -5 6 6 6 11 1 17 -2 13 -5z
m-47 -43 c0 -5 -11 -11 -25 -13 -26 -5 -35 6 -12 15 20 9 37 8 37 -2z m2210
-116 c41 -2 76 -3 78 -4 1 -1 3 0 5 2 6 4 31 -27 46 -55 8 -16 18 -28 23 -28
4 0 8 -5 8 -11 0 -8 -22 -10 -67 -7 -53 3 -77 10 -107 31 -21 15 -33 27 -25
28 8 0 -3 7 -23 15 -20 9 -39 22 -42 31 -5 11 -2 13 11 8 10 -4 52 -9 93 -10z
m-93 -67 c-3 -8 -6 -5 -6 6 -1 11 2 17 5 13 3 -3 4 -12 1 -19z m342 -175 c67
-115 68 -140 6 -119 -47 17 -70 40 -84 86 -6 21 -23 48 -36 58 -27 22 -33 34
-12 26 8 -3 25 4 38 15 13 11 27 20 31 21 3 0 29 -39 57 -87z m-2913 40 c-10
-10 -19 5 -10 18 6 11 8 11 12 0 2 -7 1 -15 -2 -18z m1540 -864 c3 -6 1 -14
-5 -18 -15 -10 -3 -41 15 -41 8 0 17 7 21 15 5 13 8 13 20 -4 8 -12 13 -26 11
-33 -4 -21 54 -78 79 -78 37 0 27 -15 -19 -28 -42 -12 -324 -20 -334 -9 -3 3
-22 0 -42 -7 -21 -7 -43 -11 -49 -9 -7 3 -13 0 -13 -6 0 -17 51 -26 61 -10 6
11 11 11 21 1 15 -15 55 -16 60 -1 3 9 10 8 28 -1 14 -8 54 -12 101 -11 44 1
80 -3 84 -9 3 -5 0 -10 -7 -11 -7 0 -3 -4 10 -9 14 -6 25 -21 28 -40 4 -16 12
-30 19 -30 8 0 16 -6 19 -12 3 -7 3 -3 0 10 -5 19 -1 22 25 22 35 0 43 -24 11
-33 -23 -6 -28 -37 -6 -37 8 0 16 -6 19 -14 4 -9 14 -12 26 -9 15 4 21 1 21
-12 0 -12 5 -15 19 -10 11 3 22 1 26 -5 5 -8 11 -8 21 1 8 6 18 8 22 4 4 -4 1
-10 -5 -12 -15 -5 -18 -33 -4 -33 6 0 12 4 16 10 3 5 13 6 22 3 13 -5 15 -1 9
23 -5 23 -4 25 4 12 17 -28 29 -21 27 15 -4 41 -32 72 -72 81 -29 6 -68 46
-45 46 6 0 15 10 19 23 8 20 10 21 16 3 5 -11 3 -21 -4 -26 -9 -5 -8 -9 4 -14
23 -8 39 3 26 18 -6 7 -8 16 -4 19 11 12 23 8 23 -8 0 -16 12 -20 24 -7 4 4
24 7 44 8 21 0 50 4 66 9 19 5 27 4 23 -2 -4 -6 2 -20 12 -32 11 -12 21 -18
23 -12 1 5 14 11 28 13 21 2 26 -1 28 -26 2 -19 -4 -36 -19 -52 -12 -13 -19
-24 -15 -24 10 0 29 20 44 45 11 18 12 17 6 -8 -9 -37 18 -58 65 -52 30 5 32
4 21 -11 -12 -13 -11 -17 1 -25 8 -5 22 -9 31 -9 9 0 18 -5 20 -12 3 -7 13 -3
27 11 13 13 26 19 30 14 3 -6 17 -13 31 -16 14 -3 36 -9 50 -13 21 -5 23 -4
13 7 -7 7 -13 16 -13 20 0 11 50 17 56 7 8 -12 110 -4 127 11 12 9 16 8 21 -6
5 -11 1 -22 -9 -29 -11 -8 -13 -14 -5 -19 18 -11 -36 -45 -76 -48 -33 -2 -38
1 -44 23 l-6 25 -8 -24 c-6 -16 -11 -20 -16 -11 -4 7 -10 8 -13 3 -7 -11 11
-83 20 -83 3 0 3 6 0 13 -3 8 -1 20 5 28 8 12 10 12 15 0 10 -25 42 -51 57
-45 8 3 23 1 33 -4 16 -10 15 -12 -9 -21 -16 -6 -28 -16 -28 -24 0 -24 -21
-36 -45 -25 -15 7 -35 6 -66 -3 -24 -7 -50 -12 -56 -10 -8 1 -10 -4 -7 -14 4
-10 0 -15 -11 -15 -11 0 -15 5 -11 15 3 8 1 15 -4 15 -6 0 -10 -5 -10 -11 0
-24 -48 -57 -74 -52 -26 5 -37 -11 -13 -20 9 -4 9 -8 -2 -15 -8 -6 -11 -17 -8
-26 8 -21 -59 -54 -75 -38 -20 20 -45 -28 -45 -86 0 -30 -5 -57 -11 -61 -6 -4
-14 -27 -18 -51 -4 -25 -11 -51 -17 -58 -6 -7 -11 -32 -11 -55 -1 -38 -4 -42
-28 -45 -16 -2 -28 -8 -28 -13 0 -6 5 -7 11 -3 6 3 3 -9 -7 -27 -9 -19 -19
-28 -21 -21 -3 6 -10 9 -16 5 -16 -10 -47 -11 -52 -3 -8 14 -56 -2 -51 -16 3
-8 1 -14 -4 -14 -5 0 -10 10 -9 23 0 42 -9 95 -21 116 -6 12 -9 30 -6 39 5 14
0 18 -26 17 -17 0 -33 -6 -35 -12 -3 -8 4 -13 16 -13 18 0 19 -3 11 -26 -6
-14 -10 -36 -10 -50 0 -13 -4 -24 -10 -24 -5 0 -10 8 -10 19 0 10 -7 24 -15
31 -13 11 -14 10 -9 -4 5 -12 2 -15 -10 -10 -10 4 -25 -1 -36 -11 -19 -18 -20
-17 -20 5 0 25 47 131 62 141 5 3 -3 20 -17 38 -22 26 -25 34 -15 46 15 18 40
20 40 3 0 -6 3 -9 6 -5 4 3 8 30 9 59 3 52 4 53 32 51 38 -3 95 24 91 44 -2 9
-11 21 -21 27 -14 9 -21 7 -31 -6 -7 -10 -17 -18 -21 -18 -4 0 -3 6 3 13 6 6
13 32 16 57 6 41 5 43 -8 26 -9 -10 -13 -22 -11 -26 3 -4 -2 -13 -10 -20 -13
-11 -15 -8 -15 18 0 28 -11 39 -50 47 -3 1 -25 20 -49 44 -24 23 -45 40 -48
37 -3 -2 -28 8 -57 23 -28 15 -72 31 -98 35 -26 4 -50 12 -54 17 -3 6 -13 8
-21 4 -9 -3 -24 2 -34 11 -11 10 -28 15 -43 12 -14 -3 -24 -1 -23 4 2 10 -67
38 -95 38 -9 0 -29 5 -45 12 -28 11 -28 11 22 21 28 5 64 10 82 10 18 0 30 4
27 9 -3 4 -12 8 -20 8 -8 0 -14 5 -14 11 0 7 -10 9 -25 5 -20 -5 -25 -3 -25
14 0 11 6 20 13 21 6 0 25 2 41 2 16 1 34 10 39 19 17 26 -1 34 -22 10 -24
-29 -26 -28 -41 11 -7 17 -20 38 -29 45 -9 7 -16 20 -16 30 0 11 -7 16 -17 14
-22 -4 -22 7 0 33 18 22 58 43 47 25 -3 -6 3 -10 14 -10 14 0 19 5 15 15 -4
10 0 15 16 15 11 0 18 -4 15 -10 -3 -5 -1 -10 4 -10 6 0 11 5 11 11 0 8 4 9
13 0 16 -13 27 -5 27 20 0 9 11 24 25 33 14 9 23 21 20 26 -4 6 5 10 19 10 17
0 28 -8 38 -30 17 -39 28 -38 28 3 0 17 7 40 14 50 12 16 14 16 20 2 11 -29
28 -4 21 31 -4 26 -3 34 9 34 8 0 18 -5 22 -11z m54 1 c0 -5 -4 -10 -10 -10
-5 0 -10 5 -10 10 0 6 5 10 10 10 6 0 10 -4 10 -10z m360 -195 c-7 -9 -15 -13
-17 -11 -7 7 7 26 19 26 6 0 6 -6 -2 -15z m780 -21 c0 -16 -16 -19 -25 -4 -8
13 4 32 16 25 5 -4 9 -13 9 -21z m-203 -36 c-3 -8 -6 -5 -6 6 -1 11 2 17 5 13
3 -3 4 -12 1 -19z m185 -2 c4 3 9 -9 13 -26 9 -41 -2 -51 -26 -21 -23 28 -27
70 -6 52 8 -6 16 -8 19 -5z m-1067 -15 c3 -5 1 -12 -5 -16 -5 -3 -10 1 -10 9
0 18 6 21 15 7z m512 -13 c-3 -8 -6 -5 -6 6 -1 11 2 17 5 13 3 -3 4 -12 1 -19z
m390 -10 c-3 -7 -5 -2 -5 12 0 14 2 19 5 13 2 -7 2 -19 0 -25z m73 -18 c0 -4
-7 -10 -15 -14 -10 -4 -15 1 -15 14 0 13 5 18 15 14 8 -4 15 -10 15 -14z
m-290 -15 c-7 -8 -17 -15 -23 -15 -6 0 -2 7 9 15 25 19 30 19 14 0z m-1130 -5
c0 -5 -4 -10 -10 -10 -5 0 -10 5 -10 10 0 6 5 10 10 10 6 0 10 -4 10 -10z
m1010 -13 c0 -20 -5 -24 -31 -25 -23 0 -29 3 -27 16 2 9 14 19 28 23 14 4 26
7 28 8 1 1 2 -10 2 -22z m365 13 c3 -5 -1 -10 -9 -10 -9 0 -16 5 -16 10 0 6 4
10 9 10 6 0 13 -4 16 -10z m-275 -31 c0 -5 -7 -9 -15 -9 -9 0 -15 9 -15 21 0
18 2 19 15 9 8 -7 15 -16 15 -21z m148 20 c-2 -3 3 -13 10 -21 10 -13 10 -17
-2 -21 -15 -6 -30 18 -21 34 4 5 -2 6 -12 3 -15 -5 -16 -4 -3 5 15 11 34 11
28 0z m-198 -19 c0 -5 -4 -10 -10 -10 -5 0 -10 5 -10 10 0 6 5 10 10 10 6 0
10 -4 10 -10z m-1100 -45 c-7 -8 -22 -15 -34 -15 -20 0 -19 1 4 14 34 19 45
19 30 1z m1347 -27 c-3 -8 -6 -5 -6 6 -1 11 2 17 5 13 3 -3 4 -12 1 -19z m142
-127 c-14 -4 -30 19 -22 33 3 5 12 1 20 -10 10 -13 10 -20 2 -23z m70 26 c6
-8 8 -16 5 -20 -10 -9 -34 4 -34 19 0 18 14 18 29 1z m-1379 -21 c0 -3 -4 -8
-10 -11 -5 -3 -10 -1 -10 4 0 6 5 11 10 11 6 0 10 -2 10 -4z m1769 -9 c6 -8 8
-17 5 -20 -4 -3 -3 -27 1 -52 6 -43 8 -45 21 -28 13 16 13 16 8 0 -3 -9 -2
-23 4 -30 13 -15 18 -129 7 -147 -5 -9 -4 -11 3 -6 8 5 10 2 6 -8 -6 -15 -23
-20 -51 -17 -7 1 -13 -4 -13 -12 0 -21 -20 -35 -41 -30 -36 10 -58 111 -35
163 4 9 8 40 11 70 5 68 11 106 20 119 9 15 40 14 54 -2z m36 -37 c3 -5 1 -10
-4 -10 -6 0 -11 5 -11 10 0 6 2 10 4 10 3 0 8 -4 11 -10z m-455 -21 c0 -5 -9
-9 -20 -9 -11 0 -20 -5 -20 -11 0 -5 -4 -7 -10 -4 -16 10 11 43 32 37 10 -2
18 -8 18 -13z m73 -30 c20 -19 20 -20 2 -13 -11 4 -29 13 -40 21 -17 12 -18
13 -2 13 10 0 28 -9 40 -21z m-1656 -65 c-3 -3 -12 -4 -19 -1 -8 3 -5 6 6 6
11 1 17 -2 13 -5z m1721 -30 c-4 -3 -12 5 -18 18 -12 22 -12 22 6 6 10 -10 15
-20 12 -24z m-1628 17 c0 -6 -9 -9 -20 -8 -11 1 -20 5 -20 9 0 4 9 8 20 8 11
0 20 -4 20 -9z m100 -5 c25 -3 46 -10 48 -15 2 -6 12 -11 21 -11 10 0 31 -12
46 -26 15 -14 34 -23 41 -20 14 5 34 -22 34 -45 0 -9 -3 -9 -14 0 -7 6 -21 9
-30 5 -12 -5 -15 -2 -9 11 5 15 2 17 -15 13 -12 -3 -23 0 -26 7 -2 7 -22 12
-46 12 -23 0 -37 -3 -30 -7 8 -5 7 -10 -4 -19 -10 -8 -16 -9 -21 -1 -10 17
-35 12 -28 -6 4 -11 15 -15 38 -12 24 3 31 0 28 -9 -3 -7 -9 -13 -15 -13 -5 0
-6 -5 -3 -11 4 -6 13 -8 21 -5 21 8 29 -21 14 -49 -7 -13 -10 -32 -6 -42 6
-17 5 -17 -8 0 -16 21 -32 22 -40 2 -8 -22 -30 -18 -41 8 -7 15 -18 21 -34 19
-20 -2 -22 0 -11 13 11 13 7 15 -28 15 -23 0 -44 5 -47 10 -3 6 -21 10 -40 10
-20 0 -35 6 -39 15 -3 8 -10 15 -16 15 -5 0 -10 -7 -10 -15 0 -19 -27 -19 -64
0 -39 20 -49 19 -36 -6 6 -11 10 -25 7 -32 -2 -6 -10 3 -18 21 -8 18 -19 30
-26 27 -24 -9 -13 12 12 23 14 6 25 17 25 23 0 7 9 5 25 -5 28 -19 35 -20 35
-6 0 6 -7 10 -15 10 -8 0 -15 5 -15 10 0 7 14 8 38 4 34 -7 36 -6 23 9 -7 10
-20 17 -27 17 -22 0 -16 21 6 27 14 4 17 9 11 17 -8 9 -1 12 23 12 27 0 32 -3
28 -18 -4 -16 3 -18 61 -18 36 0 69 5 72 11 4 6 24 8 49 5 37 -5 38 -5 13 5
-15 6 -25 15 -21 20 3 5 9 7 13 5 4 -3 27 -7 51 -10z m-157 -3 c-7 -2 -21 -2
-30 0 -10 3 -4 5 12 5 17 0 24 -2 18 -5z m1477 -139 c0 -2 -9 -4 -20 -4 -11 0
-20 4 -20 9 0 5 9 7 20 4 11 -3 20 -7 20 -9z m-2692 -34 c32 -30 41 -50 21
-50 -11 0 -69 60 -69 72 0 15 15 8 48 -22z m2656 17 c14 -8 23 -17 19 -20 -7
-8 -43 -10 -43 -3 0 2 -3 11 -6 20 -7 19 -4 20 30 3z m-47 -3 c-3 -3 -12 -4
-19 -1 -8 3 -5 6 6 6 11 1 17 -2 13 -5z m-70 -24 c3 -11 13 -20 22 -20 13 0
13 -2 2 -9 -18 -12 -7 -41 19 -48 31 -8 24 -20 -17 -28 -21 -4 -45 -13 -55
-21 -11 -11 -18 -12 -23 -4 -3 5 -10 8 -15 5 -5 -3 -25 1 -44 9 -19 8 -36 13
-38 11 -2 -2 -18 -6 -36 -10 -25 -4 -32 -2 -32 10 0 9 7 18 15 21 8 4 15 11
15 18 1 13 65 56 84 56 7 0 21 7 32 15 28 21 65 19 71 -5z m33 10 c0 -5 -4
-10 -10 -10 -5 0 -10 5 -10 10 0 6 5 10 10 10 6 0 10 -4 10 -10z m-2636 -51
c22 -23 41 -49 42 -58 3 -46 5 -52 15 -45 10 6 28 -11 29 -28 0 -12 -70 -30
-113 -28 -23 2 -49 2 -57 1 -22 -2 -70 -46 -70 -64 0 -9 -5 -19 -11 -23 -12
-7 -8 -152 6 -189 6 -16 3 -16 -13 4 -63 78 -51 223 25 303 27 28 50 80 60
130 3 15 13 29 22 31 9 3 18 5 20 6 2 0 22 -18 45 -40z m2922 24 c-2 -11 -13
-19 -30 -21 -35 -4 -23 -22 15 -22 26 0 29 -3 23 -25 -4 -15 -2 -25 4 -25 17
0 25 40 12 55 -24 28 8 15 38 -16 28 -28 29 -32 15 -49 -9 -10 -23 -16 -32
-13 -13 4 -14 3 -1 -5 12 -9 12 -14 0 -36 -7 -14 -19 -26 -27 -26 -17 0 -17
17 0 23 6 3 2 6 -10 6 -12 1 -24 -5 -27 -11 -3 -7 -4 -4 -3 7 1 15 -3 19 -20
18 -13 -2 -23 2 -23 7 0 6 -9 10 -20 10 -12 0 -33 11 -48 26 l-27 25 30 -3
c17 -2 33 -10 36 -18 6 -13 8 -12 14 2 4 11 1 24 -9 33 -18 18 -11 45 13 45 9
0 27 7 41 14 34 19 39 19 36 -1z m183 -55 c36 -177 62 -486 41 -473 -4 3 -11
37 -14 76 -4 39 -12 81 -17 93 -8 18 -6 -23 4 -89 1 -5 -4 -9 -10 -7 -15 2
-16 -7 -3 -28 6 -9 5 -19 -2 -28 -9 -11 -13 -11 -19 0 -7 11 -9 10 -9 0 0 -8
9 -16 20 -19 15 -4 20 -14 20 -42 1 -20 5 -56 10 -81 5 -29 5 -49 -2 -58 -6
-6 -8 -26 -4 -43 3 -18 2 -28 -4 -24 -6 4 -7 -11 -4 -38 4 -26 2 -53 -5 -63
-5 -11 -11 -13 -11 -6 0 6 -5 12 -11 12 -6 0 -9 -7 -6 -15 4 -8 2 -17 -3 -20
-6 -4 -10 -15 -10 -27 0 -11 -9 -31 -20 -45 -11 -15 -18 -34 -15 -43 4 -11 -3
-23 -20 -34 -14 -9 -25 -22 -25 -28 0 -6 -7 -19 -15 -28 -9 -10 -19 -37 -23
-61 -5 -32 -13 -45 -27 -47 -22 -5 -45 -26 -45 -42 0 -7 7 -9 16 -6 13 5 15 2
10 -16 -4 -13 -8 -32 -9 -43 -2 -18 -8 -21 -36 -16 -5 0 -11 10 -14 21 -7 25
-32 17 -42 -13 -4 -14 -8 -17 -12 -9 -7 18 -30 15 -43 -5 -11 -17 -11 -17 -6
0 3 10 6 25 6 33 0 8 8 15 18 15 14 1 14 2 -3 6 -25 7 -65 33 -65 43 0 5 8 11
18 13 15 4 15 6 -4 12 -11 3 -25 20 -31 36 -8 21 -18 29 -36 29 -20 0 -24 4
-20 19 3 13 -2 21 -16 26 -23 7 -29 25 -8 25 6 0 4 5 -6 11 -14 8 -16 18 -11
45 6 31 4 34 -18 34 -16 0 -34 12 -51 33 -15 19 -49 58 -76 87 -27 29 -51 65
-54 79 -3 14 -10 43 -15 63 -6 21 -6 35 -1 32 5 -3 9 -12 9 -20 0 -18 10 -17
34 1 10 8 16 20 13 28 -4 10 0 13 13 10 10 -3 21 0 24 6 4 6 0 11 -8 11 -9 0
-16 5 -16 11 0 8 -5 7 -15 -1 -9 -7 -19 -9 -23 -5 -4 4 -1 10 6 12 6 3 12 16
12 29 0 13 5 24 10 24 6 0 10 -4 10 -10 0 -5 5 -10 10 -10 6 0 10 11 10 25 0
18 -7 28 -26 35 -32 13 -22 32 13 24 16 -4 28 -2 33 6 5 8 18 15 29 17 27 4
28 -23 1 -30 -11 -3 -20 -10 -20 -16 0 -6 9 -11 20 -11 11 0 20 5 20 10 0 6
11 10 24 10 19 0 23 -4 19 -20 -3 -11 0 -20 6 -20 6 0 11 7 11 16 0 14 2 15
17 3 15 -12 16 -12 10 4 -10 26 16 21 41 -8 12 -14 27 -25 33 -25 6 0 9 -6 6
-12 -2 -7 -11 -12 -20 -10 -11 2 -14 -3 -10 -18 3 -12 11 -18 17 -15 6 3 19 8
29 11 9 4 17 15 17 25 0 13 7 19 22 19 17 0 19 -3 10 -12 -17 -17 -15 -29 3
-22 8 4 23 0 32 -7 14 -13 16 -11 11 14 -4 23 -3 25 9 15 17 -14 82 -11 101 4
10 8 8 14 -5 25 -16 13 -15 13 6 2 20 -9 26 -9 36 5 7 9 17 16 24 16 22 0 10
28 -24 54 -20 15 -33 31 -30 37 4 5 17 -3 30 -17 20 -21 27 -24 44 -14 12 6
21 15 21 20 0 6 7 10 15 10 8 0 15 7 15 15 0 8 8 15 18 16 9 0 2 6 -16 12 -29
11 -31 14 -18 27 9 8 17 37 19 64 2 38 7 50 21 52 21 3 35 14 17 14 -6 0 -21
9 -32 19 -17 16 -19 22 -8 39 7 11 19 18 26 15 13 -5 18 8 7 19 -8 9 -14 119
-8 151 9 42 22 32 33 -25z m-3328 -74 c-7 -30 -17 -52 -21 -49 -12 7 -1 95 14
114 17 22 20 -5 7 -65z m1799 -6 c19 -6 19 -41 0 -50 -23 -10 -88 -9 -95 1 -3
6 1 13 9 18 8 4 16 15 18 23 5 25 31 41 43 26 6 -7 17 -15 25 -18z m1637 10
c13 -12 23 -28 23 -35 0 -18 -51 10 -68 38 -18 28 15 26 45 -3z m-620 -13 c0
-8 -4 -15 -9 -15 -10 0 -11 14 -1 23 9 10 10 9 10 -8z m50 -21 c-3 -3 -12 -4
-19 -1 -8 3 -5 6 6 6 11 1 17 -2 13 -5z m643 -33 c0 -12 -20 -25 -27 -18 -7 7
6 27 18 27 5 0 9 -4 9 -9z m-627 -8 c-7 -2 -19 -2 -25 0 -7 3 -2 5 12 5 14 0
19 -2 13 -5z m66 -4 c17 -6 31 -17 31 -24 0 -7 -14 -18 -31 -24 -31 -11 -69
-15 -69 -8 0 6 31 67 34 67 2 0 17 -5 35 -11z m-364 -8 c6 -11 -15 -61 -27
-61 -4 0 -8 -7 -8 -16 0 -14 -3 -14 -15 -4 -22 18 -18 57 7 74 26 18 35 20 43
7z m102 -27 c-3 -4 -19 -3 -34 1 -27 6 -27 7 -8 21 17 12 21 12 34 -1 8 -8 12
-17 8 -21z m-2372 -98 c-13 -25 -29 -67 -35 -94 l-13 -48 -25 23 c-14 12 -31
34 -38 48 -11 21 -11 25 1 25 8 0 17 11 21 25 3 14 11 25 18 25 6 0 27 21 46
47 34 45 34 45 41 20 5 -18 0 -40 -16 -71z m1335 68 c0 -11 -6 -13 -22 -8 -13
4 -31 8 -40 8 -37 1 -16 16 22 16 30 0 40 -4 40 -16z m-370 -24 c0 -6 25 -8
63 -5 l62 4 -57 -11 c-32 -5 -58 -14 -58 -18 0 -12 45 -17 70 -8 22 8 87 12
163 9 40 -1 33 -21 -7 -21 -19 0 -38 -4 -41 -10 -3 -5 -18 -10 -33 -11 -27 -1
-27 -1 -3 -8 25 -7 42 -31 22 -31 -20 0 -12 -17 12 -25 57 -20 63 -23 45 -24
-25 -1 -23 -42 2 -71 11 -13 20 -26 20 -30 0 -5 11 -11 25 -14 30 -8 37 -57 8
-54 -34 2 -63 -2 -63 -10 0 -4 12 -8 26 -7 16 0 31 -8 38 -20 6 -11 22 -29 35
-41 17 -16 20 -23 10 -26 -8 -3 -11 -9 -7 -13 4 -4 14 -2 22 4 8 7 22 11 31 9
14 -3 13 -6 -5 -25 -19 -21 -19 -23 -3 -23 10 0 30 6 44 14 24 12 28 11 40 -5
7 -11 24 -19 36 -19 28 0 29 -11 3 -35 -11 -10 -17 -22 -14 -27 4 -6 -2 -8
-12 -6 -14 3 -18 11 -17 33 2 21 0 26 -6 16 -5 -8 -18 -12 -29 -9 -15 4 -19 2
-15 -9 3 -8 1 -18 -5 -22 -6 -4 -9 -16 -6 -28 6 -22 6 -22 28 4 l22 25 17 -25
c14 -22 14 -27 2 -37 -8 -6 -19 -9 -25 -5 -14 9 -40 -13 -40 -33 0 -8 -8 -20
-17 -27 -14 -11 -15 -16 -5 -28 9 -11 10 -17 2 -22 -6 -4 -9 -13 -7 -19 7 -17
-6 -36 -34 -50 -16 -7 -24 -20 -24 -37 -1 -27 -31 -77 -43 -69 -4 3 -8 -16
-10 -42 -2 -27 -7 -48 -13 -48 -5 0 -9 -14 -9 -31 0 -27 2 -29 15 -15 8 8 15
18 15 22 0 4 18 29 40 55 22 26 40 50 40 54 0 3 18 25 40 47 22 23 40 48 40
54 0 7 6 19 13 26 8 7 16 24 20 38 3 14 15 35 27 47 11 12 20 26 20 32 0 5 8
12 17 15 21 8 43 -18 43 -51 0 -13 6 -23 14 -23 7 0 26 -12 42 -27 16 -15 33
-26 37 -25 5 1 20 -6 35 -16 27 -19 95 -52 106 -52 10 0 7 48 -4 55 -16 10
-12 45 6 52 9 3 26 0 37 -7 11 -7 37 -12 57 -12 37 1 37 1 37 -43 0 -42 -2
-43 -34 -47 -19 -2 -37 0 -40 5 -3 5 -14 -1 -24 -14 -16 -21 -20 -22 -29 -9
-9 12 -10 12 -7 -5 2 -11 9 -19 16 -17 7 1 10 -2 6 -8 -3 -5 -13 -10 -21 -10
-8 0 -14 -4 -14 -10 0 -20 -19 -9 -22 13 -2 17 -11 23 -34 25 l-31 3 1 -63 c1
-59 3 -63 26 -67 24 -3 23 -4 -10 -17 -19 -7 -28 -13 -19 -13 9 -1 24 -10 34
-21 21 -23 18 -24 -63 -38 -29 -5 -55 -6 -57 -1 -7 11 13 22 30 15 9 -3 12 0
8 10 -6 16 12 20 22 4 3 -5 13 -10 21 -10 13 0 11 7 -6 36 -17 26 -20 38 -11
47 6 6 11 35 11 65 0 44 -2 52 -13 43 -8 -6 -17 -8 -20 -4 -4 3 -7 -1 -7 -10
0 -21 -9 -21 -32 0 -17 15 -20 15 -35 0 -13 -13 -14 -19 -3 -31 7 -9 21 -16
31 -16 14 0 19 -7 19 -30 0 -30 14 -41 23 -17 3 6 6 2 6 -10 2 -39 -10 -53
-44 -53 -24 0 -34 -5 -38 -20 -3 -11 -1 -23 4 -26 5 -3 9 -10 9 -16 0 -6 -8
-3 -19 8 -10 10 -16 22 -14 27 6 10 -19 77 -29 77 -4 0 -8 -13 -8 -28 0 -16
-9 -37 -20 -47 -20 -18 -21 -18 -27 3 -3 13 -13 22 -24 22 -10 0 -20 4 -24 10
-4 6 -15 6 -30 0 -20 -8 -25 -6 -25 6 0 25 -25 10 -28 -17 -2 -13 -9 -29 -16
-34 -20 -15 -37 -169 -22 -194 4 -6 23 -13 44 -16 63 -11 72 -16 72 -36 0 -10
7 -19 15 -19 8 0 15 -9 15 -20 0 -14 5 -18 16 -13 9 3 20 0 25 -8 11 -18 11
-32 0 -24 -5 3 -12 1 -16 -5 -6 -10 13 -14 48 -11 10 2 17 -5 17 -16 1 -16 2
-17 13 -2 11 15 15 15 31 3 11 -7 22 -12 25 -9 11 6 116 -52 114 -64 -2 -6 4
-8 12 -5 9 4 15 0 15 -9 0 -8 7 -18 16 -21 13 -5 14 -9 4 -21 -10 -12 -9 -15
8 -15 15 0 22 -9 27 -30 6 -28 25 -43 25 -20 0 6 5 10 10 10 6 0 10 -9 10 -20
0 -19 11 -25 35 -20 5 1 24 -1 43 -5 27 -5 32 -10 27 -26 -4 -11 -2 -19 4 -19
29 0 -3 -79 -33 -81 -12 -1 -5 -5 14 -8 24 -5 39 -3 46 6 6 7 19 13 28 13 21
0 21 21 -1 26 -14 4 -18 16 -19 50 0 24 3 44 8 44 4 0 8 -7 8 -15 0 -8 6 -15
14 -15 8 0 17 -6 19 -12 4 -9 6 -8 6 3 1 8 -4 20 -11 27 -9 9 -9 12 1 12 7 0
15 -9 18 -21 4 -14 12 -19 24 -16 10 3 24 -1 30 -9 13 -16 39 -2 39 21 0 17
27 27 36 14 4 -7 10 -7 17 0 15 15 100 15 91 0 -4 -7 0 -9 12 -6 11 3 36 9 57
13 37 6 47 17 26 30 -7 4 3 19 27 40 20 19 40 31 43 28 3 -3 -1 -9 -9 -14 -8
-5 -11 -12 -7 -17 4 -4 17 -1 29 6 20 12 21 12 13 -21 -4 -18 -7 -39 -8 -45 0
-7 -6 -13 -14 -13 -7 0 -12 -10 -11 -24 2 -27 -20 -76 -39 -89 -7 -4 -13 -17
-13 -27 0 -23 -44 -55 -64 -47 -20 8 -27 -3 -15 -24 8 -16 6 -19 -18 -19 -20
0 -24 -3 -14 -9 21 -13 5 -29 -24 -24 -17 4 -27 0 -31 -11 -3 -9 -10 -16 -16
-16 -5 0 -7 4 -3 9 8 14 -9 22 -55 25 -22 2 -46 9 -55 16 -19 16 -20 48 -1 46
26 -2 22 19 -4 22 -14 2 -35 13 -48 25 -16 15 -25 18 -30 10 -4 -6 -25 -14
-47 -17 -23 -4 -48 -15 -59 -29 l-19 -22 5 28 c6 31 -7 38 -15 8 -3 -14 -11
-18 -25 -15 -12 4 -22 0 -25 -10 -8 -22 -25 -20 -23 2 0 9 -6 17 -14 17 -8 0
-15 -9 -15 -20 0 -11 -11 -25 -25 -32 -18 -9 -20 -13 -7 -13 9 0 17 -4 17 -10
0 -19 -32 -10 -37 11 -6 20 -15 21 -55 4 -13 -5 -15 -2 -11 13 9 37 -24 33
-61 -9 -42 -46 -49 -48 -40 -14 7 30 2 31 -33 8 -32 -21 -83 -24 -75 -5 2 7
12 12 21 11 39 -4 57 14 45 46 -9 23 -30 18 -55 -15 -25 -32 -44 -38 -52 -17
-3 7 -6 5 -6 -5 -1 -22 -20 -23 -50 -2 -19 14 -25 14 -32 3 -7 -12 -9 -12 -9
0 0 7 -6 11 -15 7 -11 -4 -15 1 -15 17 0 12 -9 28 -20 35 -11 7 -20 23 -20 37
0 22 -9 30 -32 26 -4 0 -19 11 -33 25 -14 14 -32 23 -40 20 -11 -4 -15 2 -15
19 0 16 -6 25 -16 25 -9 0 -14 6 -11 13 3 7 -4 19 -14 25 -10 7 -19 19 -19 27
0 8 -6 15 -14 15 -8 0 -23 8 -35 18 -18 15 -19 22 -11 57 12 50 -5 74 -39 55
-21 -11 -27 -48 -6 -39 5 2 9 7 8 11 -2 4 4 5 12 2 27 -11 17 -34 -15 -34 -20
0 -30 5 -30 15 0 8 -4 15 -10 15 -14 0 -25 73 -11 78 17 6 13 20 -9 27 -25 8
-26 23 -2 32 39 15 45 31 23 67 -11 18 -17 36 -13 40 4 4 -10 5 -31 1 -33 -6
-36 -5 -30 11 4 11 3 15 -4 11 -7 -5 -9 0 -6 12 7 28 30 33 58 15 l24 -16 -6
39 c-3 21 -10 40 -15 41 -11 5 -10 42 1 42 5 0 11 -6 14 -12 2 -7 7 -10 11 -7
13 12 -5 37 -25 32 -23 -6 -27 22 -4 31 8 3 15 14 15 25 0 11 5 23 10 26 6 3
10 1 10 -4 0 -6 5 -11 10 -11 6 0 10 7 10 15 0 8 -7 15 -16 15 -13 0 -14 3 -4
15 6 8 9 19 5 25 -3 5 1 10 10 10 9 0 13 -4 10 -10 -8 -13 37 -8 52 6 22 21
20 49 -4 52 -16 2 -23 10 -23 26 0 30 -18 46 -52 46 -32 0 -37 16 -8 25 11 3
20 13 20 21 0 8 8 14 18 15 13 0 12 2 -6 9 -12 5 -25 17 -29 25 -3 9 -11 14
-18 11 -16 -6 -22 9 -19 52 1 17 -2 32 -7 32 -5 0 -9 11 -9 25 0 15 -11 36
-26 50 -15 14 -22 25 -15 25 6 0 11 14 11 30 0 22 -5 30 -17 30 -17 1 -17 1 0
11 23 14 22 33 -3 26 -21 -5 -27 7 -9 18 6 4 8 13 5 21 -3 8 -1 14 5 14 6 0 7
5 4 11 -4 6 -16 0 -29 -15 -28 -33 -36 -33 -35 2 0 15 3 21 6 15 7 -18 23 -16
23 2 0 8 -5 15 -10 15 -17 0 -53 38 -46 49 4 5 2 12 -4 16 -17 11 -11 24 14
31 14 3 27 12 30 19 6 16 -36 29 -45 13 -10 -16 -29 0 -29 25 0 18 2 19 10 7
9 -13 11 -13 20 0 8 13 11 12 24 -5 12 -16 16 -17 17 -5 1 8 3 22 4 30 4 35
28 80 46 85 22 7 25 21 7 28 -8 4 -4 8 10 12 12 4 22 11 22 15 0 5 25 14 55
20 30 6 55 16 55 21 0 5 5 9 10 9 6 0 10 -4 10 -10z m2177 -50 c-10 -14 -12
-32 -7 -60 4 -22 3 -37 -1 -34 -5 3 -9 -1 -9 -8 -1 -8 -4 -7 -10 4 -11 18 7
118 22 118 4 0 9 8 9 18 1 16 2 16 6 0 2 -10 -2 -27 -10 -38z m-2367 25 c7 -9
10 -18 7 -22 -8 -7 -37 15 -37 28 0 14 16 11 30 -6z m890 -4 c0 -6 -4 -13 -10
-16 -5 -3 -10 1 -10 9 0 9 5 16 10 16 6 0 10 -4 10 -9z m833 -15 c8 -19 -3
-28 -19 -15 -8 6 -14 7 -18 0 -4 -6 -18 -6 -39 2 l-32 12 45 6 c25 3 48 7 51
7 4 1 9 -4 12 -12z m-643 -16 c0 -5 -5 -10 -11 -10 -5 0 -7 5 -4 10 3 6 8 10
11 10 2 0 4 -4 4 -10z m1334 4 c9 -3 16 -13 16 -21 0 -10 -6 -13 -16 -9 -9 3
-20 6 -25 6 -5 0 -9 7 -9 15 0 16 9 19 34 9z m-1878 -37 c9 -9 -24 -39 -36
-32 -5 3 -32 6 -59 7 -47 0 -49 1 -33 19 13 15 27 18 69 16 29 -2 56 -6 59
-10z m1944 3 c0 -13 -11 -13 -30 0 -12 8 -11 10 8 10 12 0 22 -4 22 -10z
m-1639 -17 c1 -10 2 -25 3 -35 2 -25 14 -32 31 -18 12 10 15 10 15 -4 0 -9 7
-16 16 -16 11 0 14 6 8 23 -3 12 -3 19 1 15 5 -4 15 -2 23 5 12 9 16 9 19 0 3
-7 12 -13 21 -13 12 0 13 3 4 12 -17 17 -15 25 9 31 18 5 20 2 16 -19 -5 -27
1 -31 17 -10 16 20 54 3 67 -31 8 -21 7 -28 -6 -35 -8 -5 -15 -16 -15 -24 0
-11 -6 -13 -21 -9 -14 5 -20 3 -18 -7 4 -24 -35 -98 -51 -97 -30 3 -38 -1 -44
-23 -3 -13 -27 -47 -54 -77 l-48 -54 -49 8 c-28 4 -44 10 -37 12 19 7 14 30
-8 36 -11 3 -23 13 -27 24 -3 10 -10 20 -13 23 -4 3 -11 16 -15 29 -8 25 -6
25 41 -18 14 -12 15 -12 12 5 -2 11 2 18 10 17 6 -2 12 6 12 17 0 16 -5 19
-24 14 -18 -4 -28 0 -40 17 -22 32 -20 42 12 61 15 10 21 18 15 18 -24 0 -13
28 13 34 20 5 24 10 16 18 -8 8 -15 8 -27 -2 -11 -9 -19 -10 -27 -2 -14 14 0
34 20 28 10 -3 24 -1 32 4 8 5 11 10 5 10 -11 1 66 50 78 50 4 0 8 -8 8 -17z
m319 1 c0 -8 -4 -12 -10 -9 -5 3 -10 10 -10 16 0 5 5 9 10 9 6 0 10 -7 10 -16z
m200 -25 c0 -5 -4 -9 -10 -9 -5 0 -10 7 -10 16 0 8 5 12 10 9 6 -3 10 -10 10
-16z m-790 1 c0 -5 -9 -10 -21 -10 -11 0 -17 5 -14 10 3 6 13 10 21 10 8 0 14
-4 14 -10z m1005 0 c3 -5 2 -10 -4 -10 -5 0 -13 5 -16 10 -3 6 -2 10 4 10 5 0
13 -4 16 -10z m-2316 -64 c0 -17 -3 -25 -6 -18 -2 6 -8 10 -12 8 -4 -3 -8 8
-9 24 -2 23 1 28 13 24 9 -4 15 -18 14 -38z m1920 30 c9 -10 8 -15 -4 -20 -10
-4 -15 1 -15 14 0 24 4 25 19 6z m202 -55 c0 -20 2 -51 5 -68 2 -18 -1 -33 -6
-33 -12 0 -40 53 -40 75 0 8 -6 15 -12 15 -9 0 -10 2 -2 8 6 4 15 22 19 41 7
33 8 34 21 16 8 -10 14 -35 15 -54z m-761 39 c0 -5 -9 -10 -20 -10 -11 0 -20
5 -20 10 0 6 9 10 20 10 11 0 20 -4 20 -10z m-1573 -25 c1 -5 -1 -17 -7 -25
-7 -12 -12 -12 -29 4 -12 11 -21 23 -21 28 0 12 53 6 57 -7z m2180 -2 c6 -15
7 -15 15 3 7 15 7 14 3 -6 -2 -14 -5 -35 -5 -47 0 -13 -4 -23 -8 -23 -5 0 -7
14 -4 30 5 34 -3 38 -29 14 -11 -10 -19 -12 -24 -5 -3 6 1 14 9 17 9 3 16 12
16 20 0 20 19 18 27 -3z m-107 -13 c0 -5 -7 -10 -16 -10 -8 0 -12 5 -9 10 3 6
10 10 16 10 5 0 9 -4 9 -10z m1167 -77 c-4 -17 -4 -17 -12 0 -4 9 -4 25 0 35
8 16 8 16 12 0 3 -10 3 -26 0 -35z m-3096 -39 c39 -23 59 -42 59 -55 0 -21
-34 -27 -46 -8 -3 6 -16 8 -28 5 -29 -7 -43 3 -60 46 -15 35 -13 42 13 47 2 1
30 -15 62 -35z m2784 27 c3 -5 1 -12 -5 -16 -5 -3 -10 1 -10 9 0 18 6 21 15 7z
m-1295 -11 c0 -5 -2 -10 -4 -10 -3 0 -8 5 -11 10 -3 6 -1 10 4 10 6 0 11 -4
11 -10z m800 -16 c0 -8 -5 -12 -10 -9 -6 4 -8 11 -5 16 9 14 15 11 15 -7z
m807 -16 c-3 -8 -6 -5 -6 6 -1 11 2 17 5 13 3 -3 4 -12 1 -19z m-3157 -72 c0
-8 7 -22 16 -30 14 -15 13 -16 -8 -16 -30 0 -61 33 -45 49 16 16 37 14 37 -3z
m2340 -88 c23 -55 17 -106 -15 -118 -13 -5 -26 -14 -30 -19 -3 -6 -16 -11 -29
-11 -12 0 -28 -6 -34 -12 -10 -10 -15 -10 -23 2 -8 11 -12 12 -15 3 -8 -17
-63 -5 -95 21 -25 21 -39 22 -121 14 -10 -1 -18 -7 -18 -13 0 -5 -4 -5 -8 2
-9 15 -82 6 -82 -9 0 -6 -7 -7 -16 -4 -10 4 -22 -1 -29 -10 -9 -13 -18 -15
-41 -7 -51 17 -42 73 16 95 43 17 134 27 148 16 8 -7 12 -7 12 0 0 6 7 9 15 6
11 -5 15 1 15 19 0 28 44 65 56 46 3 -6 17 -8 29 -5 19 5 22 3 18 -14 -3 -11
0 -20 6 -20 6 0 11 6 11 14 0 18 47 9 83 -16 15 -11 39 -21 53 -23 30 -3 58
21 49 43 -5 13 10 42 22 42 2 0 12 -19 23 -42z m-2293 14 c-10 -10 -14 -22
-10 -26 4 -4 0 -4 -10 0 -9 3 -17 9 -17 13 0 12 23 31 39 31 12 0 11 -3 -2
-18z m183 -173 c0 -21 -51 -30 -99 -17 -19 6 -48 8 -66 6 -43 -5 -130 40 -130
67 0 25 38 32 68 12 25 -16 137 -30 137 -17 0 5 12 16 27 24 27 14 28 13 45
-22 10 -21 17 -44 18 -53z m2194 49 c25 -22 31 -40 28 -85 -2 -23 -22 -33 -22
-12 0 6 -16 25 -36 43 -29 25 -35 37 -30 54 9 28 28 28 60 0z m-932 -40 c-15
-15 -26 -4 -18 18 5 13 9 15 18 6 9 -9 9 -15 0 -24z m-15 -33 c-7 -7 -16 -10
-21 -5 -12 12 2 30 19 24 11 -5 12 -9 2 -19z m-487 -55 c0 -5 -4 -10 -10 -10
-5 0 -10 5 -10 10 0 6 5 10 10 10 6 0 10 -4 10 -10z m-40 -30 c0 -5 -5 -10
-11 -10 -5 0 -7 5 -4 10 3 6 8 10 11 10 2 0 4 -4 4 -10z m1610 -105 c0 -11 7
-14 23 -10 25 6 61 -18 55 -36 -3 -8 -10 -6 -22 6 -15 15 -19 16 -27 4 -11
-18 -11 -29 0 -29 5 0 7 -18 4 -40 -4 -26 -2 -40 6 -40 6 0 11 -9 11 -20 0
-14 6 -20 18 -18 25 4 21 -25 -5 -37 -24 -10 -33 -31 -9 -22 7 3 18 1 24 -5
15 -15 43 14 32 32 -9 14 5 50 18 50 4 0 16 -7 26 -15 15 -11 17 -18 9 -26
-13 -13 -6 -37 16 -59 13 -13 14 -11 8 17 -5 25 -3 31 7 27 9 -3 13 1 13 12
-1 11 6 20 17 22 15 3 18 0 13 -17 -4 -18 -1 -21 31 -21 34 -1 35 -2 19 -14
-11 -8 -14 -15 -7 -18 8 -2 6 -13 -4 -33 -9 -17 -16 -41 -16 -55 0 -47 -12
-70 -38 -77 -32 -8 -57 -31 -66 -59 -6 -21 -84 -107 -98 -110 -5 -1 -12 -2
-18 -3 -5 0 -10 -8 -10 -16 0 -8 -6 -12 -14 -9 -7 3 -21 -2 -30 -11 -15 -15
-16 -14 -16 18 0 20 -4 37 -10 39 -6 2 -5 9 1 18 8 11 12 12 16 3 12 -30 31
-11 35 35 3 26 3 49 1 51 -1 2 -12 -4 -23 -14 -18 -16 -20 -16 -26 -1 -3 9 -1
22 5 30 6 7 8 15 6 18 -8 8 14 140 25 153 5 6 5 17 0 25 -15 23 -12 50 5 50 9
0 12 6 9 15 -4 8 -10 12 -15 9 -5 -3 -9 -3 -9 0 0 2 -3 13 -7 23 -6 15 -5 16
9 5 9 -7 19 -9 21 -5 3 5 -8 15 -24 22 -38 16 -48 40 -24 53 11 7 14 13 6 17
-7 5 -7 17 1 44 11 37 28 50 28 22z m-760 -5 c0 -5 -4 -10 -10 -10 -5 0 -10 5
-10 10 0 6 5 10 10 10 6 0 10 -4 10 -10z m330 -1 c0 -4 3 -14 6 -23 5 -12 0
-16 -17 -15 -13 0 -18 3 -11 6 10 4 10 9 -3 23 -16 18 -16 19 4 17 12 -1 21
-4 21 -8z m-400 -36 c0 -20 -3 -24 -11 -16 -7 7 -9 19 -6 27 10 24 17 19 17
-11z m244 -26 c17 -26 -15 -49 -73 -54 -28 -2 -51 -2 -51 1 0 2 7 17 15 32 14
27 15 27 15 7 0 -13 5 -23 10 -23 6 0 10 5 10 10 0 6 6 10 14 10 9 0 12 7 9
20 -4 17 -1 20 18 17 13 -2 28 -11 33 -20z m-152 -9 c-9 -9 -15 -9 -24 0 -9 9
-7 12 12 12 19 0 21 -3 12 -12z m847 -57 c1 -7 -8 -3 -18 10 -15 19 -17 27 -8
38 10 11 13 9 18 -10 4 -13 7 -30 8 -38z m-709 -39 c0 -19 -44 -29 -55 -12
-10 16 4 30 31 30 16 0 24 -6 24 -18z m-70 -6 c0 -11 -19 -15 -25 -6 -3 5 1
10 9 10 9 0 16 -2 16 -4z m570 -37 c0 -5 -4 -9 -10 -9 -5 0 -10 7 -10 16 0 8
5 12 10 9 6 -3 10 -10 10 -16z m-1555 -37 c-6 -16 -7 -16 -17 2 -8 14 -7 21 3
27 17 10 24 -4 14 -29z m38 18 c-3 -11 -9 -20 -14 -20 -5 0 -9 9 -9 20 0 11 6
20 14 20 9 0 12 -7 9 -20z m-682 -359 c-9 -6 -14 -24 -13 -52 2 -50 -11 -69
-48 -69 -48 0 -93 -12 -78 -21 7 -4 24 -6 38 -3 78 16 72 18 65 -18 -11 -50
-16 -52 -36 -19 -24 39 -44 41 -34 4 11 -39 8 -65 -7 -74 -15 -10 -30 -1 -22
13 4 6 1 13 -5 17 -18 11 -23 51 -5 44 8 -3 14 0 14 6 0 6 -15 12 -32 12 -18
1 -25 3 -15 6 21 5 22 17 3 32 -11 10 -16 9 -24 -5 -5 -9 -15 -15 -23 -12 -9
3 -4 11 16 23 17 10 36 25 43 34 8 10 12 11 12 2 0 -7 5 -9 10 -6 6 4 8 10 5
15 -7 12 12 23 25 15 8 -5 8 -11 0 -20 -7 -8 -7 -15 -1 -19 5 -4 12 3 16 13 3
11 15 23 26 26 11 4 19 15 19 27 0 19 -4 20 -57 14 -32 -4 -94 -11 -138 -16
-114 -13 -158 -30 -162 -64 -3 -23 6 -38 46 -78 27 -27 52 -57 55 -66 4 -9
-22 13 -56 49 -94 99 -93 97 -74 118 24 26 76 40 215 56 69 9 127 17 129 20 3
3 28 5 56 5 34 0 46 -3 37 -9z m2246 -26 c8 -22 -6 -33 -17 -15 -13 20 -12 30
0 30 6 0 13 -7 17 -15z m-97 -54 c0 -11 -15 -26 -37 -38 -17 -10 -22 -9 -27 3
-12 32 -6 40 29 40 19 0 35 -2 35 -5z m160 5 c0 -3 -4 -8 -10 -11 -5 -3 -10
-1 -10 4 0 6 5 11 10 11 6 0 10 -2 10 -4z m-315 -46 c-3 -5 -10 -10 -16 -10
-5 0 -9 5 -9 10 0 6 7 10 16 10 8 0 12 -4 9 -10z m-2475 -30 c0 -5 -7 -10 -16
-10 -8 0 -12 5 -9 10 3 6 10 10 16 10 5 0 9 -4 9 -10z m284 -40 c-6 -5 -24 21
-24 34 0 6 6 1 14 -10 8 -10 12 -21 10 -24z m2166 30 c0 -5 -2 -10 -4 -10 -3
0 -8 5 -11 10 -3 6 -1 10 4 10 6 0 11 -4 11 -10z m40 0 c0 -5 -4 -10 -10 -10
-5 0 -10 5 -10 10 0 6 5 10 10 10 6 0 10 -4 10 -10z m120 -20 c0 -5 -4 -10
-10 -10 -5 0 -10 5 -10 10 0 6 5 10 10 10 6 0 10 -4 10 -10z m-353 -32 c-3 -8
-6 -5 -6 6 -1 11 2 17 5 13 3 -3 4 -12 1 -19z m-1983 -9 c-3 -5 -10 -7 -15 -3
-5 3 -7 10 -3 15 3 5 10 7 15 3 5 -3 7 -10 3 -15z m-21 -34 c-7 -21 -13 -19
-13 6 0 11 4 18 10 14 5 -3 7 -12 3 -20z m144 -35 c-14 -36 -37 -40 -37 -6 0
22 9 29 42 35 3 0 1 -12 -5 -29z m-135 -2 c-9 -9 -15 -9 -24 0 -9 9 -7 12 12
12 19 0 21 -3 12 -12z m78 -10 c0 -19 -2 -20 -10 -8 -13 19 -13 30 0 30 6 0
10 -10 10 -22z m-37 -2 c4 -10 1 -13 -9 -9 -15 6 -19 23 -5 23 5 0 11 -7 14
-14z m2017 -76 c0 -5 -5 -10 -11 -10 -5 0 -7 5 -4 10 3 6 8 10 11 10 2 0 4 -4
4 -10z m-1320 -30 c0 -5 -4 -10 -9 -10 -6 0 -13 5 -16 10 -3 6 1 10 9 10 9 0
16 -4 16 -10z m-36 -16 c-7 -3 -10 -14 -7 -24 7 -25 -2 -25 -26 -1 -20 20 -20
20 2 24 31 6 44 6 31 1z m137 -51 c8 -7 21 -13 27 -13 7 0 12 -4 12 -9 0 -5 8
-12 18 -15 40 -15 82 -43 101 -68 28 -35 27 -38 -14 -38 -20 0 -48 -9 -63 -20
-15 -11 -34 -18 -42 -17 -28 5 -80 41 -81 57 0 9 -2 11 -6 3 -3 -10 -9 -10
-23 0 -16 9 -18 19 -13 49 5 36 4 38 -21 38 -23 0 -26 4 -26 35 0 26 3 33 15
29 8 -4 17 1 21 10 6 14 10 14 43 -6 20 -12 43 -27 52 -35z m1606 -75 c-3 -8
-6 -5 -6 6 -1 11 2 17 5 13 3 -3 4 -12 1 -19z m-1697 -69 c0 -5 -4 -9 -10 -9
-5 0 -10 7 -10 16 0 8 5 12 10 9 6 -3 10 -10 10 -16z m2400 -9 c0 -5 -4 -10
-10 -10 -5 0 -10 5 -10 10 0 6 5 10 10 10 6 0 10 -4 10 -10z m-2360 -23 c0
-13 24 -28 63 -41 13 -4 17 -14 15 -33 -2 -23 -8 -28 -33 -30 -16 -1 -24 0
-17 3 18 8 15 26 -5 22 -16 -3 -63 31 -63 45 0 9 34 -4 41 -16 4 -5 9 -5 13 1
4 6 -5 19 -19 28 -13 9 -22 20 -19 25 8 14 24 11 24 -4z m230 -7 c0 -16 -7
-20 -31 -20 -17 0 -28 -4 -24 -10 3 -5 15 -10 26 -10 14 0 18 -6 15 -22 -2
-14 -10 -22 -19 -22 -15 2 -15 -1 -1 -28 34 -66 -27 -82 -83 -21 -40 44 -32
64 19 45 17 -6 34 -9 37 -7 10 10 -44 55 -66 55 -14 0 -23 6 -23 15 0 18 5 19
32 4 17 -9 24 -8 37 9 9 11 30 23 46 25 17 2 31 5 33 6 1 0 2 -8 2 -19z m1420
16 c0 -3 -4 -8 -10 -11 -5 -3 -10 -1 -10 4 0 6 5 11 10 11 6 0 10 -2 10 -4z
m-1302 -25 c3 -8 -1 -12 -9 -9 -7 2 -15 10 -17 17 -3 8 1 12 9 9 7 -2 15 -10
17 -17z m1977 -10 c-3 -6 -11 -8 -17 -5 -6 4 -5 9 3 15 16 10 23 4 14 -10z
m770 -31 c3 -6 -1 -7 -9 -4 -18 7 -21 14 -7 14 6 0 13 -4 16 -10z m-813 -22
c-7 -7 -12 -8 -12 -2 0 14 12 26 19 19 2 -3 -1 -11 -7 -17z m-2012 -17 c0 -4
-7 -8 -15 -8 -8 0 -15 6 -15 13 0 8 6 11 15 8 8 -4 15 -9 15 -13z m-1630 -96
c-7 -8 -17 -15 -23 -15 -6 0 -2 7 9 15 25 19 30 19 14 0z"/>
<path d="M2370 3320 c0 -5 7 -7 15 -4 8 4 15 8 15 10 0 2 -7 4 -15 4 -8 0 -15
-4 -15 -10z"/>
<path d="M2440 3299 c0 -11 5 -17 10 -14 6 3 10 13 10 21 0 8 -4 14 -10 14 -5
0 -10 -9 -10 -21z"/>
<path d="M2515 3240 c3 -5 10 -10 16 -10 5 0 9 5 9 10 0 6 -7 10 -16 10 -8 0
-12 -4 -9 -10z"/>
<path d="M2463 3225 c0 -9 10 -15 25 -15 21 0 22 2 12 15 -7 8 -18 15 -25 15
-6 0 -12 -7 -12 -15z"/>
<path d="M2765 3210 c4 -6 11 -8 16 -5 14 9 11 15 -7 15 -8 0 -12 -5 -9 -10z"/>
<path d="M3096 3181 c-8 -12 10 -51 23 -51 5 0 11 6 14 14 7 18 -28 52 -37 37z"/>
<path d="M2466 3141 c-4 -5 -2 -12 3 -15 5 -4 12 -2 15 3 4 5 2 12 -3 15 -5 4
-12 2 -15 -3z"/>
<path d="M2640 3120 c0 -5 5 -10 10 -10 6 0 10 5 10 10 0 6 -4 10 -10 10 -5 0
-10 -4 -10 -10z"/>
<path d="M2988 3083 c7 -3 16 -2 19 1 4 3 -2 6 -13 5 -11 0 -14 -3 -6 -6z"/>
<path d="M3235 3080 c3 -5 8 -10 11 -10 2 0 4 5 4 10 0 6 -5 10 -11 10 -5 0
-7 -4 -4 -10z"/>
<path d="M3104 2759 c-3 -6 -1 -16 5 -22 9 -9 14 -8 21 3 5 8 10 18 10 23 0
11 -28 8 -36 -4z"/>
<path d="M3012 2719 c-12 -18 -11 -20 5 -17 10 2 19 11 21 21 5 23 -10 21 -26
-4z"/>
<path d="M2938 2683 c7 -3 16 -2 19 1 4 3 -2 6 -13 5 -11 0 -14 -3 -6 -6z"/>
<path d="M2886 2561 c-3 -5 1 -14 9 -21 13 -10 15 -9 15 9 0 21 -14 28 -24 12z"/>
<path d="M2160 2740 c0 -5 6 -10 14 -10 8 0 18 5 21 10 3 6 -3 10 -14 10 -12
0 -21 -4 -21 -10z"/>
<path d="M2225 2730 c3 -5 8 -10 11 -10 2 0 4 5 4 10 0 6 -5 10 -11 10 -5 0
-7 -4 -4 -10z"/>
<path d="M2248 2693 c7 -3 16 -2 19 1 4 3 -2 6 -13 5 -11 0 -14 -3 -6 -6z"/>
<path d="M3577 2643 c-12 -11 -8 -23 8 -23 8 0 15 7 15 15 0 16 -12 20 -23 8z"/>
<path d="M3505 2560 c3 -5 10 -10 16 -10 5 0 9 5 9 10 0 6 -7 10 -16 10 -8 0
-12 -4 -9 -10z"/>
<path d="M3990 2560 c0 -5 5 -10 11 -10 5 0 7 5 4 10 -3 6 -8 10 -11 10 -2 0
-4 -4 -4 -10z"/>
<path d="M3520 2050 c0 -5 5 -10 11 -10 5 0 7 5 4 10 -3 6 -8 10 -11 10 -2 0
-4 -4 -4 -10z"/>
<path d="M3985 2050 c3 -5 8 -10 11 -10 2 0 4 5 4 10 0 6 -5 10 -11 10 -5 0
-7 -4 -4 -10z"/>
<path d="M3515 2010 c4 -6 11 -8 16 -5 14 9 11 15 -7 15 -8 0 -12 -5 -9 -10z"/>
<path d="M3550 1995 c0 -8 9 -15 20 -15 11 0 20 -5 20 -11 0 -5 4 -7 10 -4 15
9 60 -25 53 -41 -3 -8 0 -14 6 -14 6 0 11 5 11 11 0 7 8 18 18 25 15 12 15 13
-10 14 -17 0 -34 10 -47 28 -17 23 -22 25 -31 12 -6 -10 -10 -11 -10 -2 0 6
-9 12 -20 12 -11 0 -20 -7 -20 -15z"/>
<path d="M3880 1990 c0 -5 5 -10 10 -10 6 0 10 5 10 10 0 6 -4 10 -10 10 -5 0
-10 -4 -10 -10z"/>
<path d="M3750 1975 c0 -8 4 -15 10 -15 5 0 7 7 4 15 -4 8 -8 15 -10 15 -2 0
-4 -7 -4 -15z"/>
<path d="M3840 1970 c0 -5 5 -10 11 -10 5 0 7 5 4 10 -3 6 -8 10 -11 10 -2 0
-4 -4 -4 -10z"/>
<path d="M3720 1953 c1 -15 30 -47 37 -40 3 4 -3 16 -15 27 -12 12 -22 17 -22
13z"/>
<path d="M3600 1941 c0 -5 7 -11 15 -15 9 -3 15 0 15 9 0 8 -7 15 -15 15 -8 0
-15 -4 -15 -9z"/>
<path d="M3460 1920 c0 -5 5 -10 10 -10 6 0 10 5 10 10 0 6 -4 10 -10 10 -5 0
-10 -4 -10 -10z"/>
<path d="M3514 1906 c0 -14 6 -22 14 -19 15 6 15 11 -2 28 -12 12 -14 11 -12
-9z"/>
<path d="M3860 1898 c0 -17 27 -44 36 -35 3 3 -3 16 -15 28 -16 18 -21 19 -21
7z"/>
<path d="M3581 1886 c-14 -8 -19 -16 -13 -20 6 -3 12 0 15 6 4 10 7 11 18 1 7
-7 22 -13 34 -12 12 0 15 3 6 6 -11 5 -11 7 0 15 9 5 4 6 -15 2 -21 -5 -27 -4
-22 5 9 14 7 14 -23 -3z"/>
<path d="M3695 1830 c4 -6 11 -8 16 -5 14 9 11 15 -7 15 -8 0 -12 -5 -9 -10z"/>
<path d="M3725 1800 c-9 -15 3 -30 25 -30 17 0 37 17 29 24 -13 11 -48 15 -54
6z"/>
<path d="M3790 1806 c0 -2 7 -7 16 -10 8 -3 12 -2 9 4 -6 10 -25 14 -25 6z"/>
<path d="M1990 2310 c0 -5 -11 -10 -25 -10 -21 0 -25 -5 -25 -32 0 -25 3 -29
12 -20 17 17 53 15 68 -3 24 -29 58 -7 44 30 -4 8 -1 15 4 15 6 0 12 -8 14
-17 2 -10 6 -14 10 -8 4 6 -2 21 -11 34 -15 19 -22 22 -37 13 -12 -7 -25 -7
-36 -1 -12 6 -18 6 -18 -1z m47 -36 c-3 -3 -12 -4 -19 -1 -8 3 -5 6 6 6 11 1
17 -2 13 -5z"/>
<path d="M2135 2240 c-3 -5 1 -10 9 -10 9 0 16 -6 16 -14 0 -19 26 -40 35 -26
3 5 16 10 28 11 16 0 13 4 -15 16 -21 8 -38 19 -38 24 0 12 -27 11 -35 -1z"/>
<path d="M2054 2204 c3 -9 6 -19 6 -23 0 -13 39 -9 51 5 15 19 -2 34 -40 34
-17 0 -22 -4 -17 -16z"/>
<path d="M2135 2201 c-9 -16 52 -74 70 -67 8 3 15 18 15 33 0 21 -3 24 -12 15
-17 -17 -24 -15 -47 9 -12 13 -21 17 -26 10z"/>
<path d="M1847 2046 c-4 -10 0 -12 14 -9 10 3 16 9 13 14 -8 13 -21 11 -27 -5z"/>
<path d="M1960 2025 c0 -8 5 -15 10 -15 6 0 10 7 10 15 0 8 -4 15 -10 15 -5 0
-10 -7 -10 -15z"/>
<path d="M2350 1920 c0 -5 7 -10 15 -10 8 0 15 5 15 10 0 6 -7 10 -15 10 -8 0
-15 -4 -15 -10z"/>
<path d="M1956 1841 c-4 -7 -5 -15 -2 -18 9 -9 19 4 14 18 -4 11 -6 11 -12 0z"/>
<path d="M2435 1730 c3 -5 10 -10 16 -10 5 0 9 5 9 10 0 6 -7 10 -16 10 -8 0
-12 -4 -9 -10z"/>
<path d="M2000 1704 c0 -14 3 -14 15 -4 8 7 15 14 15 16 0 2 -7 4 -15 4 -8 0
-15 -7 -15 -16z"/>
<path d="M2627 1504 c-14 -14 -7 -24 18 -24 16 0 25 6 25 16 0 13 -3 14 -14 5
-10 -9 -15 -9 -18 -1 -2 6 -7 8 -11 4z"/>
<path d="M2130 1420 c0 -5 5 -10 11 -10 5 0 7 5 4 10 -3 6 -8 10 -11 10 -2 0
-4 -4 -4 -10z"/>
<path d="M2198 1393 c7 -3 16 -2 19 1 4 3 -2 6 -13 5 -11 0 -14 -3 -6 -6z"/>
<path d="M2650 1385 c0 -8 5 -15 10 -15 6 0 10 7 10 15 0 8 -4 15 -10 15 -5 0
-10 -7 -10 -15z"/>
<path d="M2500 1364 c0 -8 5 -12 10 -9 6 3 10 10 10 16 0 5 -4 9 -10 9 -5 0
-10 -7 -10 -16z"/>
<path d="M2060 1339 c0 -5 5 -7 10 -4 6 3 10 8 10 11 0 2 -4 4 -10 4 -5 0 -10
-5 -10 -11z"/>
<path d="M2137 1324 c-14 -15 -6 -34 14 -34 14 0 19 5 17 17 -3 18 -20 27 -31
17z"/>
<path d="M2281 1259 c-13 -38 -13 -39 -2 -39 9 0 24 60 17 67 -2 2 -9 -10 -15
-28z"/>
<path d="M2067 1193 c-3 -5 1 -14 9 -20 14 -14 30 0 19 17 -7 12 -22 13 -28 3z"/>
<path d="M2260 1170 c0 -5 5 -10 10 -10 6 0 10 5 10 10 0 6 -4 10 -10 10 -5 0
-10 -4 -10 -10z"/>
<path d="M2326 943 c-12 -12 -6 -33 9 -33 8 0 15 6 15 14 0 17 -14 28 -24 19z"/>
<path d="M2755 780 c3 -5 13 -10 21 -10 8 0 14 5 14 10 0 6 -9 10 -21 10 -11
0 -17 -4 -14 -10z"/>
<path d="M2950 647 c0 -19 4 -25 15 -21 8 4 15 10 15 14 0 4 -7 13 -15 20 -13
11 -15 8 -15 -13z"/>
<path d="M3243 643 c-18 -7 -16 -23 2 -23 8 0 15 7 15 15 0 8 -1 15 -2 14 -2
0 -9 -3 -15 -6z"/>
<path d="M3116 585 c-4 -11 2 -15 24 -15 20 0 30 -5 30 -15 0 -8 7 -15 15 -15
8 0 15 8 15 18 0 10 5 23 12 30 9 9 1 12 -39 12 -36 0 -53 -4 -57 -15z"/>
<path d="M3435 510 c3 -5 8 -10 11 -10 2 0 4 5 4 10 0 6 -5 10 -11 10 -5 0 -7
-4 -4 -10z"/>
<path d="M3297 450 c-3 -11 -1 -20 4 -20 5 0 9 2 9 4 0 2 3 11 6 20 3 9 2 16
-4 16 -5 0 -12 -9 -15 -20z"/>
<path d="M2935 2170 c-3 -5 -1 -10 4 -10 6 0 11 5 11 10 0 6 -2 10 -4 10 -3 0
-8 -4 -11 -10z"/>
<path d="M2630 2084 c0 -13 -6 -15 -27 -9 l-27 6 19 -21 c18 -20 20 -20 32 -4
13 18 18 44 8 44 -3 0 -5 -7 -5 -16z"/>
<path d="M3630 1175 c0 -16 6 -25 15 -25 9 0 15 9 15 25 0 16 -6 25 -15 25 -9
0 -15 -9 -15 -25z"/>
<path d="M3810 1190 c0 -5 7 -10 15 -10 8 0 15 5 15 10 0 6 -7 10 -15 10 -8 0
-15 -4 -15 -10z"/>
<path d="M3631 1103 c-1 -6 -4 -20 -7 -30 -5 -17 -5 -17 6 0 6 10 9 23 6 30
-3 9 -5 9 -5 0z"/>
<path d="M3600 1010 c0 -5 5 -10 11 -10 5 0 7 5 4 10 -3 6 -8 10 -11 10 -2 0
-4 -4 -4 -10z"/>
<path d="M3601 974 c0 -11 3 -14 6 -6 3 7 2 16 -1 19 -3 4 -6 -2 -5 -13z"/>
<path d="M1128 673 c7 -3 16 -2 19 1 4 3 -2 6 -13 5 -11 0 -14 -3 -6 -6z"/>
<path d="M1160 579 c0 -5 5 -7 10 -4 6 3 10 8 10 11 0 2 -4 4 -10 4 -5 0 -10
-5 -10 -11z"/>
<path d="M1076 453 c-6 -14 -5 -15 5 -6 7 7 10 15 7 18 -3 3 -9 -2 -12 -12z"/>
<path d="M850 406 c0 -2 7 -6 15 -10 8 -3 15 -1 15 4 0 6 -7 10 -15 10 -8 0
-15 -2 -15 -4z"/>
<path d="M830 327 c0 -8 18 -24 40 -36 35 -18 38 -18 34 -3 -5 15 -4 15 10 -2
8 -10 19 -15 25 -11 6 3 11 1 11 -5 0 -14 122 -130 137 -130 7 0 16 -7 21 -16
8 -15 10 -14 16 2 5 12 1 23 -11 31 -46 33 -62 49 -63 66 0 9 -4 17 -9 17 -5
0 -23 13 -39 30 -20 19 -45 32 -73 36 -24 4 -46 10 -49 14 -3 4 -15 10 -27 14
-17 5 -23 3 -23 -7z"/>
<path d="M3600 260 c0 -5 5 -10 11 -10 5 0 7 5 4 10 -3 6 -8 10 -11 10 -2 0
-4 -4 -4 -10z"/>
<path d="M4367 226 c-18 -14 -18 -16 -1 -41 13 -20 19 -23 26 -13 7 10 8 8 4
-4 -8 -26 3 -48 22 -41 12 3 13 2 5 -4 -9 -7 -6 -21 13 -60 29 -61 50 -81 40
-37 l-6 29 15 -27 c16 -29 29 -35 40 -19 3 6 18 6 36 1 31 -9 31 -9 14 10 -10
11 -24 20 -32 20 -7 0 -13 5 -13 10 0 6 7 10 15 10 8 0 15 5 15 10 0 6 -9 10
-20 10 -12 0 -25 10 -32 25 -6 13 -15 22 -19 19 -5 -3 -9 1 -9 8 0 11 -85 109
-93 108 -1 0 -10 -7 -20 -14z"/>
<path d="M3493 163 c-4 -10 -18 -28 -31 -39 -18 -17 -23 -29 -20 -49 5 -22 3
-26 -13 -22 -14 4 -19 0 -19 -14 0 -12 -7 -19 -20 -19 -11 0 -20 -5 -20 -10 0
-7 20 -10 50 -9 31 2 50 7 50 15 0 17 30 26 45 14 9 -7 11 1 9 36 -1 30 2 44
10 41 6 -2 10 -15 8 -28 -2 -23 -1 -22 18 6 26 40 25 48 -6 41 -23 -6 -24 -5
-14 14 6 11 8 25 5 30 -10 16 -45 11 -52 -7z"/>
<path d="M3890 151 c0 -8 -8 -10 -21 -6 -15 5 -19 4 -15 -4 4 -6 2 -11 -4 -11
-6 0 -8 -5 -5 -11 4 -6 9 -8 12 -6 7 8 93 -86 93 -103 0 -12 2 -12 9 -2 4 7
14 12 22 10 8 -2 13 3 11 10 -1 8 2 11 8 7 6 -4 9 -13 6 -21 -4 -11 8 -14 57
-14 l62 1 -33 30 c-25 22 -39 28 -55 23 -12 -3 -19 -3 -15 1 7 7 -55 55 -71
55 -5 0 -20 12 -35 26 -14 15 -26 21 -26 15z"/>
<path d="M3595 80 c-3 -10 -18 -31 -32 -46 l-27 -29 44 -3 c29 -2 48 2 59 12
13 14 13 16 0 16 -8 0 -20 -5 -26 -11 -6 -6 -17 -9 -24 -7 -8 3 -1 16 19 36
38 38 38 38 12 45 -13 3 -21 -1 -25 -13z"/>
<path d="M1170 80 c0 -5 5 -10 10 -10 6 0 10 5 10 10 0 6 -4 10 -10 10 -5 0
-10 -4 -10 -10z"/>
<path d="M3687 75 c3 -8 9 -15 15 -15 5 0 6 -4 3 -10 -3 -6 1 -7 10 -4 9 4 25
-2 35 -11 18 -16 20 -17 20 -2 0 10 -4 17 -10 17 -5 0 -10 5 -10 12 0 9 3 9
12 0 13 -13 50 -16 61 -6 3 4 0 13 -8 20 -18 19 -31 18 -15 -1 16 -20 0 -19
-29 1 -17 12 -25 14 -30 5 -6 -8 -15 -9 -34 -2 -21 8 -25 7 -20 -4z"/>
<path d="M680 70 c0 -5 5 -10 10 -10 6 0 10 5 10 10 0 6 -4 10 -10 10 -5 0
-10 -4 -10 -10z"/>
<path d="M640 55 c0 -2 9 -9 20 -15 16 -9 18 -8 14 5 -5 13 -34 22 -34 10z"/>
<path d="M3660 51 c0 -5 7 -14 15 -21 10 -9 15 -9 15 -1 0 6 -5 11 -11 11 -5
0 -7 5 -4 10 3 6 1 10 -4 10 -6 0 -11 -4 -11 -9z"/>
<path d="M1188 43 c6 -2 18 -2 25 0 6 3 1 5 -13 5 -14 0 -19 -2 -12 -5z"/>
<path d="M3827 38 c-21 -6 -36 -15 -34 -22 6 -17 38 -20 49 -4 7 10 11 10 15
1 2 -7 11 -13 19 -13 9 0 12 5 9 10 -3 5 -2 10 4 10 5 0 11 -5 13 -12 3 -9 6
-9 11 -1 8 13 -18 44 -36 42 -7 -1 -29 -6 -50 -11z"/>
<path d="M4690 36 c0 -2 8 -10 18 -17 15 -13 16 -12 3 4 -13 16 -21 21 -21 13z"/>
<path d="M4740 32 c0 -16 25 -32 49 -32 14 0 21 4 16 8 -17 14 -65 32 -65 24z"/>
<path d="M3720 20 c0 -5 5 -10 11 -10 5 0 7 5 4 10 -3 6 -8 10 -11 10 -2 0 -4
-4 -4 -10z"/>
</g>
</svg>
